{"title":"The Call 2013 DVDrip English Klam","uid":11354519,"size":1283483846,"categoryP":"video","categoryS":"movies","magnet":"?xt=urn:btih:d970e391fc8ae7c9eb53bb37a438b7a15d510c57&amp;dn=The+Call+2013+DVDrip+English+Klam&amp;tr=udp%3A%2F%2Ftracker.openbittorrent.com%3A80&amp;tr=udp%3A%2F%2Fopen.demonii.com%3A1337&amp;tr=udp%3A%2F%2Ftracker.coppersurfer.tk%3A6969&amp;tr=udp%3A%2F%2Fexodus.desync.com%3A6969","seeders":5,"leechers":0,"uploader":"Klambake","files":-1,"time":1414928047,"description":" &lt;a href=&quot;http://i.imgur.com/EdsttOK.jpg&quot; rel=&quot;nofollow&quot; target=&quot;_NEW&quot;&gt;http://i.imgur.com/EdsttOK.jpg&lt;/a&gt;\n\nWith: Halle Berry, Abigail Breslin and Morris Chestnut\n\nHet verhaal volgt Jordan (Berry), een telefoonoperator van het noodnummer 911. Zij krijgt een oproep van Casey (Breslin), een tienermeisje dat ontvoerd is en opgesloten zit in de kofferbak van een auto. Wanneer blijkt dat de ontvoerder een seriemoordenaar is die ze uit haar verleden kent zal Jordan haar eigen angsten onder ogen moeten zien.\n\nWhen a veteran 911 operator takes a life-altering call from a teenage girl who has just been abducted, she realizes that she must confront a killer from her past in order to save the girl's life.\n &lt;a href=&quot;\nhttp://www.imdb.com/title/tt1911644&quot; rel=&quot;nofollow&quot; target=&quot;_NEW&quot;&gt;\nhttp://www.imdb.com/title/tt1911644&lt;/a&gt;\t\n\n--------------------- Dutch Friends 4ever ---------------------\n---------------------------------------------------------------\n- Bezoek ook eens mijn vrienden op: &lt;a href=&quot; http://www.Film-Test.nl&quot; rel=&quot;nofollow&quot; target=&quot;_NEW&quot;&gt; http://www.Film-Test.nl&lt;/a&gt; --\n----- voor mijn Nederlandse Sync. ondertitels ---- en meer ----\n------- http://www.Film-Test.nl ---- Over Films en meer -------\n---------------------------------------------------------------\n &lt;a href=&quot;\nhttp://i.imgur.com/OKjpBYp.jpg&quot; rel=&quot;nofollow&quot; target=&quot;_NEW&quot;&gt;\nhttp://i.imgur.com/OKjpBYp.jpg&lt;/a&gt; &lt;a href=&quot;\nhttp://i.imgur.com/7GZSj5V.jpg&quot; rel=&quot;nofollow&quot; target=&quot;_NEW&quot;&gt;\nhttp://i.imgur.com/7GZSj5V.jpg&lt;/a&gt; &lt;a href=&quot;\nhttp://i.imgur.com/z3TaOzs.jpg&quot; rel=&quot;nofollow&quot; target=&quot;_NEW&quot;&gt;\nhttp://i.imgur.com/z3TaOzs.jpg&lt;/a&gt;\n\nGeneral:\n\nComplete name                            : The CallThe Call.avi\nFormat                                   : AVI\nFormat/Info                              : Audio Video Interleave\nFile size                                : 1.20 GiB\nDuration                                 : 1h 34mn\nOverall bit rate                         : 1 816 Kbps\n\nVideo:\n\nFormat                                   : MPEG-4 Visual\nFormat profile                           : Simple@L3\nFormat settings, BVOP                    : No\nFormat settings, QPel                    : No\nFormat settings, GMC                     : No warppoints\nFormat settings, Matrix                  : Default (H.263)\nCodec ID                                 : XVID\nCodec ID/Hint                            : XviD\nDuration                                 : 1h 34mn\nBit rate                                 : 1 357 Kbps\nWidth                                    : 652 pixels\nHeight                                   : 352 pixels\nDisplay aspect ratio                     : 1.85:1\nFrame rate                               : 23.976 fps\nColor space                              : YUV\nChroma subsampling                       : 4:2:0\nBit depth                                : 8 bits\nScan type                                : Progressive\nCompression mode                         : Lossy\nBits/(Pixel*Frame)                       : 0.247\nStream size                              : 915 MiB (75%)\nWriting library                          : XviD 1.1.2 (UTC 2006-11-01)\n\nAudio:\n\nFormat                                   : AC-3\nFormat/Info                              : Audio Coding 3\nMode extension                           : CM (complete main)\nFormat settings, Endianness              : Big\nCodec ID                                 : 2000\nDuration                                 : 1h 34mn\nSource duration                          : 1h 34mn\nBit rate mode                            : Constant\nBit rate                                 : 448 Kbps\nChannel(s)                               : 6 channels\nChannel positions                        : Front: L C R, Side: L R, LFE\nSampling rate                            : 48.0 KHz\nBit depth                                : 16 bits\nCompression mode                         : Lossy\nStream size                              : 302 MiB (25%)\nAlignment                                : Aligned on interleaves\nInterleave, duration                     : 32 ms (0.77 video frame)\nInterleave, preload duration             : 512 ms","torrent":{"xt":"urn:btih:d970e391fc8ae7c9eb53bb37a438b7a15d510c57","amp;dn":"The+Call+2013+DVDrip+English+Klam","amp;tr":["udp%3A%2F%2Ftracker.openbittorrent.com%3A80","udp%3A%2F%2Fopen.demonii.com%3A1337","udp%3A%2F%2Ftracker.coppersurfer.tk%3A6969","udp%3A%2F%2Fexodus.desync.com%3A6969"],"infoHash":"d970e391fc8ae7c9eb53bb37a438b7a15d510c57","infoHashBuffer":{"type":"Buffer","data":[217,112,227,145,252,138,231,201,235,83,187,55,164,56,183,161,93,81,12,87]},"announce":[],"urlList":[]}}